<?xml version="1.0" standalone="no"?>
<!DOCTYPE svg PUBLIC "-//W3C//DTD SVG 20010904//EN"
 "http://www.w3.org/TR/2001/REC-SVG-20010904/DTD/svg10.dtd">
<svg version="1.0" xmlns="http://www.w3.org/2000/svg"
 width="619.000000pt" height="396.000000pt" viewBox="0 0 619.000000 396.000000"
 preserveAspectRatio="xMidYMid meet">
<metadata>
Created by potrace 1.15, written by Peter Selinger 2001-2017
</metadata>
<g transform="translate(0.000000,396.000000) scale(0.100000,-0.100000)"
fill="#000000" stroke="none">
<path d="M1900 3851 c-8 -5 -42 -14 -75 -20 -33 -6 -62 -16 -63 -21 -2 -6 -7
-8 -11 -5 -13 8 -103 -40 -158 -84 -29 -23 -57 -41 -62 -41 -6 0 -15 -8 -20
-18 -5 -10 -28 -40 -50 -67 -23 -27 -41 -54 -41 -60 0 -27 -58 -65 -115 -76
-33 -7 -64 -16 -69 -20 -6 -5 -16 -9 -24 -9 -23 0 -204 -93 -209 -107 -3 -7
-12 -13 -20 -13 -24 0 -151 -110 -276 -239 -64 -68 -117 -125 -117 -127 0 -2
-16 -26 -36 -54 -20 -27 -32 -50 -28 -50 4 0 0 -6 -9 -12 -9 -7 -25 -37 -37
-67 -12 -30 -29 -66 -39 -80 -9 -14 -25 -60 -35 -101 -10 -41 -24 -88 -31
-105 -23 -52 -30 -124 -30 -299 0 -112 4 -171 11 -173 6 -2 8 -17 6 -33 -2
-17 1 -37 8 -45 10 -12 6 -21 -19 -52 -17 -21 -31 -43 -31 -50 0 -6 -9 -18
-20 -26 -11 -8 -17 -17 -14 -20 4 -4 -1 -9 -10 -13 -9 -3 -16 -11 -16 -16 0
-5 -15 -33 -34 -61 -19 -29 -40 -65 -46 -82 -18 -45 -27 -65 -48 -115 -41 -98
-47 -139 -47 -345 0 -165 3 -214 20 -277 10 -43 22 -78 26 -78 4 0 10 -13 14
-30 3 -16 15 -47 26 -69 10 -22 19 -45 19 -51 0 -5 5 -10 11 -10 5 0 7 -5 4
-10 -3 -6 -1 -10 4 -10 6 0 20 -20 32 -45 12 -25 54 -82 93 -128 100 -113 296
-297 318 -297 10 0 23 -9 30 -20 11 -17 24 -20 76 -20 34 0 68 5 75 10 7 6 24
19 40 31 25 19 27 25 27 94 l0 73 -52 46 c-29 25 -57 46 -63 46 -13 0 -235
222 -235 235 0 6 -9 16 -20 23 -11 7 -20 17 -20 23 0 5 -17 36 -37 67 -53 80
-93 176 -93 223 0 9 -7 30 -15 45 -20 39 -21 216 -1 236 7 8 16 36 20 63 9 55
42 144 61 160 7 6 16 21 20 35 10 34 121 192 173 246 48 51 50 66 27 177 -8
40 -20 94 -25 120 -25 124 7 428 51 479 11 11 19 26 19 33 0 19 61 135 71 135
5 0 9 5 9 11 0 40 287 338 326 339 7 0 15 7 18 16 3 8 10 12 16 9 5 -3 10 -2
10 2 0 10 101 63 120 63 7 0 18 6 24 13 14 17 98 42 216 63 52 9 98 22 102 28
4 6 8 26 8 44 0 17 5 32 11 32 6 0 8 7 5 15 -3 9 1 18 9 21 8 4 15 16 15 27 0
34 106 129 166 150 29 9 62 17 74 17 12 0 28 7 36 15 21 21 192 21 220 0 10
-8 26 -15 34 -15 68 -1 142 -52 192 -129 21 -35 28 -57 28 -97 0 -60 0 -60 99
-70 39 -3 71 -10 71 -15 0 -4 17 -11 38 -14 71 -13 167 -37 177 -46 5 -5 17
-9 27 -9 10 0 21 -7 24 -15 4 -8 14 -15 24 -15 10 0 41 -17 69 -37 28 -21 76
-55 106 -77 31 -21 59 -46 63 -54 3 -9 19 -27 34 -40 15 -13 28 -28 28 -34 0
-6 15 -31 34 -57 18 -25 41 -64 50 -86 10 -22 26 -58 37 -80 22 -46 47 -133
62 -220 5 -33 13 -62 18 -65 12 -8 29 -239 29 -395 0 -130 2 -146 18 -152 64
-23 262 -203 262 -238 0 -8 5 -15 10 -15 12 0 70 -119 70 -143 0 -10 4 -17 9
-17 5 0 15 -26 21 -57 6 -32 16 -81 22 -109 11 -55 6 -169 -11 -248 -15 -68
-82 -197 -141 -272 -84 -105 -284 -284 -317 -284 -18 0 -53 -78 -53 -118 0
-93 49 -142 142 -142 48 0 80 14 126 54 12 11 22 15 22 10 0 -5 4 -4 8 1 4 6
25 24 47 40 59 44 205 188 205 202 0 7 12 20 26 29 14 10 34 34 44 55 11 20
23 39 28 41 5 1 23 33 41 70 17 36 35 68 39 70 11 4 62 179 62 211 0 15 5 27
10 27 6 0 10 58 10 155 0 97 -4 155 -10 155 -5 0 -10 15 -10 34 0 18 -4 46 -9
62 -5 16 -17 63 -26 104 -10 41 -25 80 -34 86 -14 11 -13 13 9 18 14 2 51 7
83 11 32 3 62 6 68 8 10 2 17 -13 233 -498 81 -181 151 -339 156 -350 5 -11
43 -96 84 -189 94 -211 125 -263 206 -347 106 -109 200 -144 385 -142 213 2
383 73 598 253 l87 73 0 93 c0 72 -4 96 -16 109 -9 9 -19 14 -23 13 -69 -38
-115 -51 -192 -55 -105 -7 -147 5 -207 61 -42 38 -71 89 -152 271 -140 311
-340 768 -338 769 2 2 23 11 48 20 68 26 167 83 230 131 164 126 272 307 321
535 31 141 33 470 5 625 -70 382 -275 627 -621 740 -176 57 -270 66 -748 72
l-438 5 3 -119 3 -118 180 -6 c232 -8 313 -25 476 -103 61 -29 93 -53 152
-115 115 -121 172 -259 199 -481 14 -118 5 -372 -17 -460 -62 -258 -202 -418
-438 -503 -104 -37 -250 -65 -377 -73 l-99 -7 -70 72 c-39 39 -74 71 -79 71
-5 0 -16 8 -24 18 -11 12 -17 52 -22 152 -7 145 -45 420 -57 420 -5 0 -6 6 -3
14 3 8 -1 27 -10 44 -8 16 -23 60 -32 98 -10 38 -23 73 -31 77 -7 4 -13 14
-13 22 0 19 -51 127 -66 140 -6 6 -20 28 -30 50 -20 45 -255 285 -279 285 -9
0 -18 7 -21 15 -3 8 -16 17 -27 21 -12 4 -33 14 -47 24 -54 38 -141 78 -182
85 -24 4 -56 13 -73 20 -16 7 -50 18 -75 25 -66 18 -69 20 -102 80 -32 59
-104 140 -125 140 -7 0 -17 9 -23 20 -6 11 -15 20 -21 20 -5 0 -27 11 -49 25
-22 14 -40 23 -40 20 0 -3 -10 1 -23 10 -13 8 -51 18 -86 21 -34 4 -64 11 -67
15 -7 11 -284 11 -304 0z m2969 -306 c160 -51 253 -107 330 -200 54 -64 116
-190 140 -288 47 -182 52 -449 11 -632 -60 -272 -239 -451 -525 -526 l-70 -18
27 20 c45 33 149 178 189 264 81 172 104 323 96 613 -4 121 -12 224 -22 267
-44 199 -122 358 -233 478 -25 26 -40 47 -34 47 6 0 47 -11 91 -25z m95 -2384
c118 -266 230 -508 248 -539 72 -120 186 -203 300 -220 l53 -7 -62 -28 c-114
-51 -252 -62 -346 -27 -61 23 -131 86 -171 155 -19 32 -461 1009 -503 1113 -4
9 10 12 48 13 30 0 90 6 134 13 44 6 81 11 82 11 1 0 99 -218 217 -484z"/>
<path d="M1305 2933 c-11 -3 -27 -11 -35 -17 -8 -7 -34 -20 -57 -30 -44 -20
-183 -154 -183 -177 0 -8 -11 -27 -25 -43 -14 -16 -25 -33 -25 -39 0 -5 -6
-23 -14 -40 -17 -40 -36 -109 -36 -131 0 -10 -6 -24 -14 -32 -20 -20 -30 -144
-24 -316 4 -104 10 -155 20 -171 8 -12 20 -48 27 -80 7 -32 19 -70 27 -85 8
-15 14 -32 14 -38 0 -6 6 -17 14 -23 8 -7 21 -26 30 -44 42 -82 119 -156 222
-213 70 -38 257 -44 325 -10 17 9 38 16 46 16 7 0 13 5 13 10 0 6 8 10 17 10
23 0 182 166 190 198 7 28 19 52 45 92 9 14 22 52 29 85 7 33 16 65 21 72 14
18 22 379 10 443 -25 127 -34 166 -43 175 -5 5 -9 19 -9 31 0 12 -7 24 -15 28
-8 3 -15 12 -15 21 0 8 -12 34 -27 58 -14 23 -25 42 -24 42 2 0 -23 27 -55 60
-33 33 -62 59 -65 58 -4 -1 -14 6 -24 17 -26 28 -106 72 -122 66 -7 -3 -13 -1
-13 4 0 10 -187 12 -225 3z m182 -199 c17 -8 37 -14 45 -14 18 0 111 -94 102
-103 -4 -4 -2 -7 4 -7 6 0 22 -24 36 -54 14 -30 30 -57 36 -61 5 -3 7 -12 3
-20 -3 -8 -1 -15 5 -15 5 0 12 -12 15 -27 3 -16 13 -59 21 -98 26 -120 21
-219 -24 -430 -14 -70 -20 -85 -31 -85 -5 0 -9 9 -9 20 0 11 3 20 8 20 4 0 8
23 10 51 6 93 -56 199 -146 252 -41 23 -189 24 -238 1 -49 -24 -97 -75 -128
-137 -22 -45 -26 -67 -26 -139 0 -58 4 -90 15 -104 8 -10 15 -28 15 -38 0 -37
-37 11 -38 49 -1 18 -10 53 -21 77 -11 24 -25 69 -31 101 -6 31 -14 57 -18 57
-7 0 -6 287 2 311 2 8 10 37 16 64 7 28 17 54 21 60 5 5 9 19 9 30 0 12 8 30
18 41 9 10 26 36 37 57 29 56 118 137 150 137 14 0 28 6 31 13 6 16 66 11 111
-9z"/>
<path d="M2530 2931 c0 -6 -7 -8 -15 -4 -9 3 -23 -1 -33 -9 -9 -8 -33 -22 -53
-31 -48 -22 -158 -132 -197 -197 -58 -96 -102 -226 -102 -298 0 -20 -6 -35
-15 -38 -12 -5 -15 -33 -15 -163 0 -86 4 -161 9 -166 5 -6 18 -59 30 -118 19
-95 33 -139 51 -157 8 -8 27 -41 50 -87 25 -48 163 -184 211 -207 115 -54 304
-46 399 17 46 31 154 127 143 127 -4 0 4 12 18 28 14 15 31 41 39 57 8 17 22
37 30 46 9 9 24 52 34 95 9 44 25 94 34 113 14 29 17 68 17 253 0 172 -3 220
-13 227 -8 5 -20 39 -28 77 -8 37 -21 79 -28 94 -8 14 -28 52 -46 85 -36 70
-174 209 -217 220 -15 3 -36 14 -47 23 -14 13 -43 18 -137 20 -79 3 -119 0
-119 -7z m154 -190 c3 -5 21 -12 39 -15 21 -4 49 -23 78 -54 60 -63 105 -124
101 -139 -2 -7 2 -13 8 -13 5 0 10 -5 10 -11 0 -6 6 -25 14 -42 8 -18 19 -61
26 -97 15 -81 28 -280 18 -280 -5 0 -8 -12 -8 -27 0 -16 -7 -59 -16 -98 -9
-38 -16 -82 -15 -96 1 -15 -6 -32 -14 -39 -13 -11 -15 -8 -15 18 0 17 5 34 11
38 16 10 4 110 -15 129 -8 8 -18 25 -21 38 -10 32 -74 96 -114 113 -50 21
-198 19 -238 -3 -98 -55 -152 -151 -154 -274 -1 -35 -3 -56 -6 -46 -2 9 -9 17
-14 17 -5 0 -9 8 -9 18 0 10 -4 22 -9 27 -4 6 -16 44 -25 85 -14 58 -16 107
-13 215 5 172 15 219 73 331 53 103 99 155 157 179 23 9 49 21 57 25 20 12 87
12 94 1z"/>
<path d="M2570 1289 c-38 -15 -99 -79 -121 -126 -11 -24 -24 -43 -29 -43 -6 0
-10 -7 -10 -16 0 -9 -6 -30 -14 -47 -18 -42 -36 -109 -36 -135 0 -11 -5 -22
-12 -24 -14 -5 -37 -165 -46 -323 l-7 -120 -69 -7 c-38 -4 -73 -11 -79 -17
-15 -15 -187 -15 -187 0 0 6 -7 9 -15 5 -8 -3 -15 -2 -15 3 0 5 -28 11 -62 14
-79 7 -159 24 -172 37 -6 6 -20 10 -33 10 -13 0 -26 7 -29 15 -4 8 -12 15 -18
15 -7 0 -35 11 -62 25 -27 14 -55 25 -62 25 -7 0 -15 7 -19 15 -3 9 -20 23
-37 32 -33 17 -176 142 -176 153 0 4 -18 27 -40 51 -22 24 -40 47 -40 51 0 4
-11 19 -25 33 -21 20 -36 25 -77 25 -43 0 -55 -4 -79 -30 -25 -25 -29 -38 -29
-85 0 -48 5 -61 36 -102 108 -141 253 -276 360 -333 32 -18 62 -37 65 -42 3
-5 9 -9 13 -8 3 0 23 -7 44 -16 89 -39 101 -44 114 -44 8 0 19 -5 25 -11 14
-14 65 -25 228 -49 167 -25 248 -24 415 1 74 12 151 24 170 26 19 3 39 12 43
19 4 8 18 14 30 14 13 0 31 6 42 13 11 7 40 19 65 26 25 7 52 19 60 26 8 6 40
25 70 41 30 16 58 33 61 38 4 5 26 18 48 30 40 20 287 244 307 277 5 9 30 44
57 79 44 59 47 66 47 124 0 55 -3 65 -28 89 -23 22 -37 27 -79 27 -47 0 -53
-3 -92 -45 -22 -24 -41 -51 -41 -59 0 -8 -12 -24 -26 -35 -14 -11 -23 -25 -19
-31 3 -5 2 -10 -4 -10 -5 0 -13 27 -17 60 -4 33 -11 63 -15 66 -5 3 -9 14 -9
24 0 23 -13 54 -45 105 -14 22 -28 45 -31 51 -11 25 -91 100 -117 112 -33 14
-141 15 -177 1z"/>
</g>
</svg>
